<svg width="116" height="39" viewBox="0 0 116 39" fill="none" xmlns="http://www.w3.org/2000/svg">
<path d="M63.1208 22.082C63.1208 27.7368 59.1097 31.5306 54.4734 31.5306C53.5698 31.5669 52.6688 31.4124 51.8306 31.0773C50.9924 30.7421 50.2364 30.2342 49.6132 29.5874V30.3945C49.6132 30.9806 49.3163 31.1965 48.7589 31.1965L43.9715 31.1605C43.4871 31.1605 43.1902 30.9446 43.1902 30.5385V30.4357C43.1902 29.5566 44.6383 29.1916 44.6383 27.6134V9.66725C44.6383 8.01709 42.9297 7.79604 42.9297 6.88614V6.78846C42.9297 6.38235 43.1172 6.20243 43.784 5.90941L48.5713 3.70405C49.4257 3.30307 50.1341 3.51898 50.1341 4.43917V14.6794C51.3439 13.669 52.8953 13.1458 54.4787 13.2143C58.7711 13.2143 63.1208 16.3296 63.1208 22.082ZM57.7032 24.2668C57.7032 19.6402 56.104 14.7822 53.1399 14.7822C51.4312 14.7822 50.1289 16.2833 50.1289 18.4784V25.1099C50.1289 27.598 51.9886 29.9422 53.9161 29.9422C56.3227 29.9422 57.698 27.9321 57.698 24.2874L57.7032 24.2668Z" fill="white"/>
<path d="M65.3047 30.5384V30.3945C65.3047 29.4794 66.7164 29.1864 66.7164 27.6133V19.3368C66.7164 17.7278 65.3047 17.3217 65.3047 16.5197V16.4066C65.3047 16.0776 65.6016 15.8926 66.0861 15.6407L70.7223 13.3685C71.6548 12.9264 72.2487 13.4404 72.2487 14.0985V27.6133C72.2487 29.1864 73.8114 29.4845 73.8114 30.3945V30.5384C73.8114 30.9085 73.478 31.1604 72.9571 31.1604H66.1225C65.6381 31.1604 65.3047 30.9085 65.3047 30.5384ZM65.8256 7.75998C65.8256 5.9299 67.3103 4.57275 69.4721 4.57275C71.634 4.57275 73.0717 5.9299 73.0717 7.75998C73.0717 9.59007 71.6652 10.9832 69.4721 10.9832C67.279 10.9832 65.8256 9.62605 65.8256 7.75998Z" fill="white"/>
<path d="M75.7305 30.5384V30.3945C75.7305 29.4794 77.1786 29.1864 77.1786 27.6442V9.6518C77.1786 8.00164 75.7305 7.63665 75.7305 6.87582V6.72674C75.7305 6.36175 76.0274 6.17669 76.4754 5.99676L81.1638 3.72458C82.1327 3.24649 82.6849 3.76056 82.6849 4.38259V27.6494C82.6849 29.1916 84.2841 29.4795 84.2841 30.3996V30.5436C84.2841 30.9086 83.9142 31.1656 83.4298 31.1656H76.5848C76.0639 31.1605 75.7305 30.9086 75.7305 30.5384Z" fill="white"/>
<path d="M86.125 30.5384V30.3945C86.125 29.4794 87.5732 29.1864 87.5732 27.6442V9.6518C87.5732 8.00164 86.125 7.63665 86.125 6.87582V6.72674C86.125 6.36175 86.4219 6.17669 86.8699 5.99676L91.5583 3.72458C92.5272 3.24649 93.0794 3.76056 93.0794 4.38259V27.6494C93.0794 29.1916 94.6786 29.4795 94.6786 30.3996V30.5436C94.6786 30.9086 94.3036 31.1656 93.8243 31.1656H86.9793C86.4584 31.1605 86.125 30.9086 86.125 30.5384Z" fill="white"/>
<path d="M115.999 14.1706V14.3505C115.999 15.2707 114.848 15.5997 114.108 17.2087L107.091 32.2607C105.903 34.8619 103.966 39.0001 100.152 39.0001C96.808 39.0001 94.693 36.985 94.693 35.0829C94.6713 34.7885 94.714 34.4929 94.8184 34.2162C94.9228 33.9395 95.0863 33.6883 95.2978 33.4795C95.5093 33.2708 95.7639 33.1094 96.0443 33.0064C96.3247 32.9035 96.6242 32.8612 96.9226 32.8827C99.9648 32.8827 99.0063 37.278 100.929 37.278C102.231 37.278 103.715 34.6768 104.752 32.1373L97.3654 17.2139C96.5527 15.5637 95.365 15.2758 95.365 14.3608V14.1757C95.365 13.8107 95.6984 13.5897 96.1412 13.5897H103.08C103.169 13.5812 103.258 13.5908 103.343 13.618C103.427 13.6453 103.505 13.6895 103.572 13.7479C103.638 13.8063 103.692 13.8776 103.729 13.9575C103.767 14.0373 103.787 14.1238 103.788 14.2117V14.3608C103.788 15.2758 102.413 15.3889 103.231 17.291L107.57 27.2125L111.581 17.7999C112.55 15.4917 109.946 15.2758 109.946 14.3608V14.2117C109.946 13.8467 110.243 13.5897 110.727 13.5897H115.254C115.702 13.5845 115.999 13.8056 115.999 14.1706Z" fill="white"/>
<path d="M6.68439 9.26634C6.68439 9.26634 7.09593 3.9046 12.2687 3.15406C16.5039 2.53717 18.0667 4.0434 23.2759 4.01255C25.1057 3.98216 26.8593 3.28447 28.1987 2.05395C28.2953 1.94028 28.4304 1.86511 28.5789 1.84241C28.7274 1.81972 28.8793 1.85105 29.0061 1.93057C29.0883 1.9798 29.1564 2.04878 29.2041 2.13106C30.0272 3.57559 31.194 6.96331 27.7403 10.1094C28.7353 10.9988 27.3079 13.0448 27.9539 14.186C28.9812 14.1744 30.0066 14.2744 31.0117 14.4841C31.1306 14.5049 31.24 14.5615 31.325 14.6462C31.4099 14.7309 31.466 14.8395 31.4858 14.9571C31.6629 16.1343 32.1317 19.63 31.5222 20.4576C31.2794 20.7534 30.9687 20.9877 30.6158 21.1413C31.0899 23.5523 30.1261 26.3232 29.5271 28.5902C28.4488 32.6154 26.4588 34.8156 21.8226 35.4376C21.3016 35.5096 20.7807 35.5558 20.291 35.5815C12.0083 35.9825 8.68997 29.9628 7.85127 28.0093C6.54906 28.2983 5.18413 28.083 4.03808 27.4078C3.48793 27.066 3.02779 26.6003 2.69545 26.0489C2.36311 25.4976 2.16804 24.8763 2.12628 24.236C2.03251 23.6506 2.06922 23.052 2.23386 22.4821C2.3985 21.9121 2.68711 21.3844 3.07957 20.9357C2.43883 20.2212 1.95958 18.5761 1.8606 15.7333C1.67307 10.5361 6.68439 9.26634 6.68439 9.26634Z" fill="black" stroke="white" stroke-width="3.27" stroke-miterlimit="10"/>
<path d="M29.2092 21.6245C28.8863 21.7119 28.532 21.789 28.1309 21.8661C27.5593 22.0114 26.9636 22.0394 26.3806 21.9484C27.1047 24.4365 25.6096 24.9557 25.2189 25.151C24.251 25.477 23.1929 25.4218 22.2653 24.9968C22.2276 24.9787 22.198 24.9476 22.1819 24.9094C22.1684 24.8729 22.1684 24.8328 22.1819 24.7963C22.1926 24.7584 22.2143 24.7244 22.2444 24.6986C22.2775 24.6729 22.3172 24.6569 22.359 24.6524C22.845 24.6142 23.3263 24.5316 23.7968 24.4056C24.2998 24.2908 24.7438 24.0005 25.047 23.5882C25.1831 23.3881 25.2772 23.1631 25.3238 22.9264C25.3703 22.6898 25.3683 22.4464 25.3179 22.2105C25.1409 21.5649 24.8763 20.9459 24.5313 20.3702C24.1863 19.8007 23.8716 19.2138 23.5884 18.6121C23.1769 17.661 22.6924 17.7587 22.6924 17.7587C22.4945 17.7587 22.1194 17.9129 22.0934 18.7611C22.0934 18.7611 21.9006 20.8894 21.4162 21.8455C21.161 22.4368 20.7501 22.9498 20.2261 23.3312C19.7021 23.7127 19.0842 23.9488 18.4365 24.0149C15.7589 24.529 14.8212 24.2051 13.9513 23.7476C12.5187 22.9302 11.8155 18.8794 11.5342 18.4167L10.0391 19.5631C9.86684 20.7203 9.57534 21.8571 9.16915 22.9559C9.15496 22.9933 9.12922 23.0254 9.09556 23.0475C9.0619 23.0696 9.02204 23.0808 8.98162 23.0793C8.94033 23.0809 8.89979 23.0681 8.86701 23.0433C8.8347 23.0217 8.80938 22.9914 8.79408 22.9559C8.69342 22.6577 8.52933 22.3842 8.31281 22.1537C8.09629 21.9232 7.83234 21.741 7.53865 21.6194L7.3459 21.5371C6.87415 21.3841 6.37421 21.3348 5.8811 21.3925C5.38799 21.4502 4.91362 21.6136 4.49122 21.8713C4.12658 22.1156 3.84086 22.4582 3.66814 22.8584C3.49541 23.2585 3.44298 23.6993 3.51708 24.128C3.54003 24.5689 3.66921 24.9981 3.89389 25.3798C4.11857 25.7616 4.43228 26.0849 4.80898 26.3231C5.29972 26.5995 5.84524 26.7679 6.40813 26.8167C6.97101 26.8655 7.53793 26.7936 8.06999 26.6058L8.7472 26.3951L8.95036 27.0428C9.06496 27.3975 11.7634 35.4735 21.6141 34.1524C25.7034 33.6023 27.2193 31.8031 28.1674 28.2766C28.5841 26.6624 29.6156 24.0612 29.2092 21.6245ZM7.75223 25.1099C7.74227 25.129 7.72742 25.1453 7.70914 25.157C7.69087 25.1687 7.6698 25.1755 7.64804 25.1767C7.62765 25.1827 7.60592 25.1827 7.58553 25.1767C7.56661 25.1672 7.55048 25.153 7.53865 25.1356C7.33076 24.595 6.98219 24.1181 6.52804 23.7527C6.08328 23.4488 5.56258 23.271 5.02256 23.2387C5.00028 23.2437 4.97713 23.2437 4.95484 23.2387C4.93802 23.2232 4.92547 23.2037 4.91838 23.1821C4.91325 23.1601 4.91325 23.1373 4.91838 23.1153C4.92789 23.0951 4.94219 23.0775 4.96005 23.0639C5.28739 22.818 5.68361 22.6776 6.09471 22.662C6.50581 22.6463 6.91179 22.7562 7.25734 22.9765C7.58357 23.2135 7.81218 23.5588 7.90118 23.9488C7.99017 24.3388 7.93359 24.7475 7.74181 25.0996L7.75223 25.1099ZM26.2191 27.8653C25.628 28.4936 24.9158 28.9991 24.1241 29.3522C23.3325 29.7052 22.4774 29.8988 21.6089 29.9216C18.5927 30.0193 17.0664 28.4616 16.4465 27.5774C16.4262 27.5394 16.4208 27.4953 16.4314 27.4535C16.4419 27.4118 16.4677 27.3754 16.5038 27.3512C16.5244 27.3468 16.5457 27.3468 16.5663 27.3512C16.6052 27.3383 16.6473 27.3383 16.6861 27.3512C18.3176 27.9857 20.0534 28.3185 21.8069 28.3331C23.2328 28.3781 24.6524 28.1277 25.9743 27.598C26.0132 27.5846 26.0554 27.5838 26.0948 27.5959C26.1342 27.6079 26.1686 27.6321 26.1931 27.6648C26.218 27.6964 26.2315 27.7353 26.2315 27.7753C26.2315 27.8154 26.218 27.8543 26.1931 27.8859L26.2191 27.8653Z" fill="white"/>
<path d="M20.5678 17.4451C20.5001 16.9979 19.802 16.6483 18.4841 16.5661C17.2095 16.5261 15.9346 16.6365 14.6865 16.8951C14.3953 16.9525 14.1243 17.0836 13.8999 17.2755C13.5457 17.5891 13.4154 18.1391 13.4623 19.0645C13.5095 19.948 13.7456 20.8117 14.1552 21.5988C14.5771 22.4368 14.9626 23.5112 18.682 22.627C19.8385 22.3391 20.2917 21.1464 20.474 20.3085C20.6514 19.3642 20.6831 18.3988 20.5678 17.4451ZM17.2286 21.1053C16.6764 21.1516 16.1868 20.5912 16.0982 19.8716C16.0097 19.1519 16.4108 18.5195 16.963 18.4784C17.5151 18.4373 18.0048 18.9925 18.0934 19.7173C18.1819 20.4422 17.7756 21.0642 17.2286 21.1053Z" fill="white"/>
<path d="M10.2528 17.0698L11.5082 16.2576C11.5488 16.2261 11.5925 16.1985 11.6385 16.1753L11.6906 16.1445H11.7479C13.1616 15.8413 14.591 15.6147 16.0299 15.4659C17.3887 15.3751 18.7527 15.3922 20.1087 15.5173C21.1506 15.5944 21.8955 15.6767 22.1352 15.651L22.5832 15.6047C22.9843 15.5533 24.8284 14.7822 26.5682 14.4121C26.0473 13.569 25.4066 12.145 24.6356 11.4973C21.8955 13.0292 15.9205 14.2681 9.21094 12.0577C9.79849 13.2907 10.1381 14.6245 10.2111 15.9851C10.2059 16.3347 10.2215 16.6894 10.2528 17.0698Z" fill="white"/>
<path d="M30.5687 16.8847C30.5102 16.3627 30.2601 15.8799 29.8655 15.5275C29.4721 15.3472 29.0348 15.2812 28.6048 15.3373H28.0839H27.8495H27.8026H27.4952C27.3806 15.3373 27.266 15.3733 27.1566 15.3784C25.5939 15.5995 24.2915 16.2781 24.3749 16.8127C24.5225 17.7088 24.8126 18.5762 25.2344 19.383C25.6095 20.0719 26.4482 20.8944 27.4067 20.7762C27.934 20.7203 28.4564 20.6258 28.9695 20.4934C29.2605 20.4126 29.5391 20.2933 29.7977 20.1387C29.9794 20.0328 30.1386 19.8931 30.2666 19.7275C30.4535 19.4621 30.5618 19.1506 30.5791 18.8278C30.6842 18.184 30.6807 17.5274 30.5687 16.8847ZM26.667 19.5578C26.2398 19.599 25.8126 19.1569 25.7397 18.5657C25.6668 17.9745 25.9429 17.4604 26.3752 17.4193C26.8076 17.3782 27.2296 17.8203 27.3025 18.4166C27.3754 19.0129 27.0889 19.5167 26.6565 19.5578H26.667Z" fill="white"/>
<path d="M31.3266 14.6485C31.2406 14.5624 31.1295 14.5049 31.0088 14.484C30.0071 14.275 28.9852 14.175 27.9614 14.1858C27.3155 13.0446 28.7428 10.9986 27.7478 10.1093C31.2016 6.95801 30.0347 3.57544 29.2116 2.13091C29.1312 1.99917 29.0027 1.90285 28.8525 1.86173C28.7023 1.82062 28.5419 1.83784 28.4042 1.90986C28.3348 1.94611 28.273 1.99494 28.2219 2.0538C26.8772 3.29234 25.1123 3.99081 23.2731 4.0124C18.0638 4.04324 16.501 2.53702 12.2502 3.1539C7.07742 3.90444 6.66589 9.26619 6.66589 9.26619C6.66589 9.26619 1.65456 10.5359 1.83689 15.7332C1.93586 18.576 2.38907 20.221 3.05586 20.9356C2.66217 21.3835 2.37279 21.9111 2.20808 22.4813C2.04337 23.0515 2.00736 23.6505 2.10256 24.2359C2.14513 24.8752 2.34058 25.4955 2.67288 26.0459C3.00519 26.5963 3.4649 27.0612 4.01437 27.4026C5.15853 28.0828 6.52553 28.2984 7.82756 28.004C8.68709 29.9626 12.0002 35.9772 20.2673 35.5763C20.757 35.5506 21.2675 35.5043 21.7936 35.4323C26.4351 34.8103 28.4198 32.6152 29.5242 28.5849C30.1337 26.3076 31.087 23.5522 30.6286 21.1412C30.9812 20.9872 31.2919 20.7529 31.535 20.4575C32.1445 19.6298 31.6808 16.1342 31.4985 14.9569C31.4763 14.8386 31.416 14.7304 31.3266 14.6485ZM24.6171 11.4561C25.388 12.1039 26.034 13.5124 26.5497 14.3709C24.815 14.7359 22.9657 15.507 22.5698 15.5635L22.1218 15.6098C21.8874 15.6098 21.1112 15.5481 20.0954 15.4761C18.7395 15.3485 17.3753 15.3313 16.0165 15.4247C14.5774 15.5689 13.1478 15.7938 11.7345 16.0982H11.672L11.6199 16.1342C11.5735 16.1567 11.5298 16.1842 11.4897 16.2164L10.2499 17.0698C10.2499 16.7099 10.2082 16.3552 10.1926 16.0056C10.1246 14.6394 9.79029 13.2989 9.20802 12.0576C15.9384 14.2681 21.9082 13.0292 24.6431 11.4561H24.6171ZM20.4496 20.2878C20.2673 21.1258 19.8141 22.3441 18.6576 22.6063C14.9382 23.511 14.5527 22.4315 14.1308 21.5781C13.7214 20.7928 13.4853 19.9308 13.438 19.0489C13.3911 18.1236 13.5213 17.5684 13.8755 17.26C14.1055 17.0634 14.3841 16.9304 14.683 16.8744C15.9386 16.6202 17.2203 16.5133 18.5014 16.5557C19.7985 16.6431 20.4965 16.9926 20.5851 17.4399C20.6937 18.3839 20.6586 19.3386 20.4809 20.2724L20.4496 20.2878ZM28.1646 28.2713C27.2165 31.7927 25.7006 33.5919 21.6113 34.1471C11.7554 35.4632 9.06216 27.3871 8.94755 27.0324L8.74439 26.3898L8.06198 26.5955C7.53102 26.782 6.96575 26.8542 6.40418 26.8072C5.8426 26.7602 5.29773 26.5951 4.80618 26.323C4.43134 26.0849 4.11858 25.763 3.89323 25.3835C3.66789 25.0039 3.53628 24.5773 3.50907 24.1382C3.43616 23.709 3.48969 23.2681 3.6633 22.8681C3.83691 22.468 4.1233 22.1256 4.48841 21.8814C4.91041 21.623 5.38458 21.4587 5.87771 21.4001C6.37083 21.3414 6.87097 21.3899 7.34309 21.5422L7.53584 21.6296C7.82918 21.7503 8.09296 21.9316 8.30948 22.1613C8.52601 22.3909 8.69028 22.6636 8.79127 22.961C8.80597 22.9982 8.83131 23.0303 8.8642 23.0535C8.89812 23.0761 8.9379 23.0886 8.97881 23.0895C9.01877 23.0889 9.05769 23.0769 9.09094 23.055C9.12419 23.0331 9.15036 23.0023 9.16634 22.9661C9.57133 21.867 9.86279 20.7302 10.0363 19.5733L11.5261 18.4269C11.8179 18.8896 12.5107 22.9404 13.9432 23.7167C14.8132 24.1742 15.7509 24.4878 18.4284 23.984C19.0761 23.9179 19.6941 23.6818 20.2181 23.3003C20.7421 22.9188 21.153 22.4058 21.4081 21.8146C21.8926 20.879 22.0854 18.7559 22.0854 18.7559C22.1166 17.9026 22.4917 17.7689 22.6844 17.7278C22.6844 17.7278 23.1741 17.6404 23.5804 18.5863C23.8633 19.1915 24.178 19.7818 24.5233 20.3547C24.8712 20.9344 25.1359 21.5589 25.3099 22.2105C25.3643 22.4457 25.3702 22.6894 25.3273 22.927C25.2843 23.1645 25.1934 23.3911 25.0598 23.5933C24.7585 24.0085 24.3139 24.301 23.8096 24.4158C23.328 24.5392 22.8365 24.6217 22.3406 24.6626C22.2988 24.6671 22.259 24.6831 22.226 24.7088C22.1959 24.7346 22.1742 24.7686 22.1635 24.8065C22.1504 24.8431 22.1504 24.883 22.1635 24.9196C22.1828 24.9556 22.2116 24.9858 22.2468 25.007C23.1745 25.432 24.2326 25.4872 25.2005 25.1612C25.5912 24.9607 27.0863 24.4467 26.3622 21.9586C26.9453 22.047 27.5405 22.0191 28.1125 21.8763C28.5136 21.7992 28.8678 21.7169 29.1908 21.6347C29.5971 24.0714 28.5657 26.6674 28.1489 28.2713H28.1646ZM30.6181 18.8741C30.6009 19.1953 30.4926 19.5052 30.3056 19.7686C30.1779 19.9359 30.0187 20.0772 29.8368 20.185C29.5781 20.3395 29.2995 20.4589 29.0085 20.5397C28.4958 20.6728 27.9732 20.7657 27.4457 20.8173C26.4872 20.9407 25.6485 20.1182 25.2734 19.4242C24.8508 18.6177 24.5607 17.7501 24.4139 16.8539C24.3305 16.3398 25.6537 15.6458 27.1957 15.4247C27.305 15.4247 27.4196 15.3939 27.5343 15.3836H27.8416H27.8885H28.1229H28.6438C29.0738 15.3303 29.5103 15.3961 29.9045 15.5738C30.2763 15.9211 30.5108 16.3876 30.5661 16.8898C30.6953 17.5403 30.713 18.2076 30.6181 18.8639V18.8741Z" fill="#20201D"/>
<path d="M26.448 17.4194C26.0156 17.4606 25.7395 17.9746 25.8124 18.5658C25.8854 19.157 26.3334 19.5939 26.7397 19.558C27.146 19.522 27.4482 19.0028 27.3752 18.4167C27.3023 17.8307 26.8803 17.3629 26.448 17.4194Z" fill="#20201D"/>
<path d="M17.0242 18.4785C16.4772 18.5196 16.0761 19.1468 16.1594 19.8716C16.2428 20.5964 16.7377 21.1516 17.2898 21.1054C17.842 21.0591 18.2379 20.4422 18.1546 19.7174C18.0712 18.9925 17.592 18.4373 17.0242 18.4785Z" fill="#20201D"/>
<path d="M7.26259 22.9866C6.91704 22.7663 6.51105 22.6565 6.09995 22.6721C5.68885 22.6878 5.29264 22.8281 4.9653 23.074C4.94743 23.0876 4.93314 23.1052 4.92362 23.1254C4.91608 23.1471 4.91608 23.1706 4.92362 23.1923C4.92864 23.2148 4.94156 23.2348 4.96009 23.2488C4.98052 23.2545 5.00217 23.2545 5.0226 23.2488C5.56261 23.2811 6.08331 23.4589 6.52808 23.7629C6.97856 24.1211 7.32684 24.5888 7.53868 25.12C7.55051 25.1374 7.56665 25.1516 7.58557 25.1612C7.60391 25.1738 7.62572 25.1805 7.64808 25.1805C7.67043 25.1805 7.69224 25.1738 7.71059 25.1612C7.72846 25.1476 7.74275 25.1299 7.75226 25.1097C7.94132 24.7565 7.99587 24.3482 7.90604 23.9587C7.81621 23.5692 7.58793 23.2243 7.26259 22.9866Z" fill="#20201D"/>
<path d="M26.2805 27.5722C26.2412 27.562 26.1999 27.562 26.1607 27.5722C24.8402 28.1065 23.4195 28.3571 21.9932 28.3074C20.238 28.301 18.4988 27.9769 16.8621 27.3512C16.8228 27.3409 16.7816 27.3409 16.7423 27.3512C16.717 27.3549 16.6927 27.3636 16.6709 27.3769C16.6492 27.3902 16.6304 27.4077 16.6158 27.4284C16.6011 27.4491 16.5909 27.4725 16.5858 27.4973C16.5807 27.522 16.5808 27.5475 16.586 27.5722C16.5841 27.591 16.5841 27.61 16.586 27.6288C17.2059 28.5078 18.7322 30.0655 21.7484 29.9678C22.6278 29.947 23.4936 29.7498 24.2933 29.3884C25.0931 29.0269 25.8099 28.5087 26.4003 27.8653C26.4252 27.8337 26.4387 27.7948 26.4387 27.7547C26.4387 27.7147 26.4252 27.6758 26.4003 27.6442C26.3713 27.6058 26.3283 27.58 26.2805 27.5722Z" fill="#20201D"/>
</svg>
