<svg width="15" height="12" viewBox="0 0 15 12" fill="none" xmlns="http://www.w3.org/2000/svg">
<path d="M0.5 6L0.0357612 5.81431C-0.0119204 5.93351 -0.0119204 6.06649 0.0357612 6.18569L0.5 6ZM14.5 6L14.9642 6.1857C15.0119 6.06649 15.0119 5.93351 14.9642 5.8143L14.5 6ZM7.49998 10.5C5.18597 10.5 3.56111 9.34827 2.49664 8.16552C1.96405 7.57375 1.57811 6.98029 1.32563 6.53474C1.19968 6.31247 1.10772 6.12838 1.04797 6.00164C1.01811 5.9383 0.996349 5.8894 0.98246 5.85735C0.975517 5.84133 0.970545 5.82953 0.967517 5.82225C0.966003 5.81861 0.964975 5.8161 0.96443 5.81477C0.964157 5.8141 0.964005 5.81372 0.963973 5.81364C0.963958 5.8136 0.963972 5.81364 0.964016 5.81375C0.964038 5.81381 0.964094 5.81394 0.964105 5.81397C0.964168 5.81413 0.964239 5.81431 0.5 6C0.0357612 6.18569 0.0358471 6.18591 0.0359408 6.18614C0.0359823 6.18625 0.036084 6.1865 0.0361671 6.18671C0.0363335 6.18712 0.0365311 6.18761 0.0367599 6.18818C0.0372175 6.18931 0.0377999 6.19075 0.0385076 6.19248C0.0399231 6.19595 0.0418401 6.20062 0.0442628 6.20644C0.0491078 6.21808 0.0559773 6.23436 0.0649031 6.25495C0.0827516 6.29614 0.108844 6.35467 0.143439 6.42805C0.212592 6.57474 0.315944 6.78128 0.455611 7.02776C0.734381 7.51971 1.16093 8.17625 1.75334 8.83448C2.93886 10.1517 4.814 11.5 7.49998 11.5V10.5ZM0.5 6C0.964239 6.18569 0.964168 6.18587 0.964105 6.18603C0.964094 6.18606 0.964038 6.18619 0.964016 6.18625C0.963972 6.18636 0.963958 6.1864 0.963973 6.18636C0.964005 6.18628 0.964157 6.1859 0.96443 6.18523C0.964975 6.1839 0.966003 6.18139 0.967517 6.17775C0.970545 6.17047 0.975517 6.15867 0.98246 6.14265C0.996349 6.1106 1.01811 6.0617 1.04797 5.99836C1.10772 5.87162 1.19968 5.68753 1.32563 5.46526C1.57811 5.01971 1.96405 4.42625 2.49664 3.83448C3.56111 2.65173 5.18597 1.5 7.49998 1.5V0.5C4.814 0.5 2.93886 1.84827 1.75334 3.16552C1.16093 3.82375 0.734381 4.48029 0.455611 4.97224C0.315944 5.21872 0.212592 5.42526 0.143439 5.57195C0.108844 5.64533 0.0827516 5.70386 0.0649031 5.74505C0.0559773 5.76564 0.0491078 5.78192 0.0442628 5.79356C0.0418401 5.79938 0.0399231 5.80405 0.0385076 5.80752C0.0377999 5.80925 0.0372175 5.81069 0.0367599 5.81182C0.0365311 5.81239 0.0363335 5.81288 0.0361671 5.81329C0.036084 5.8135 0.0359823 5.81375 0.0359408 5.81386C0.0358471 5.81409 0.0357612 5.81431 0.5 6ZM7.49998 1.5C9.814 1.5 11.4389 2.65173 12.5033 3.83448C13.0359 4.42625 13.4219 5.01971 13.6744 5.46526C13.8003 5.68754 13.8923 5.87162 13.952 5.99837C13.9819 6.0617 14.0037 6.1106 14.0175 6.14265C14.0245 6.15868 14.0295 6.17048 14.0325 6.17775C14.034 6.18139 14.035 6.1839 14.0356 6.18524C14.0358 6.1859 14.036 6.18628 14.036 6.18636C14.036 6.1864 14.036 6.18636 14.036 6.18625C14.036 6.1862 14.0359 6.18606 14.0359 6.18603C14.0358 6.18587 14.0358 6.1857 14.5 6C14.9642 5.8143 14.9642 5.81409 14.9641 5.81385C14.964 5.81375 14.9639 5.8135 14.9638 5.81329C14.9637 5.81288 14.9635 5.81239 14.9632 5.81182C14.9628 5.81069 14.9622 5.80925 14.9615 5.80752C14.9601 5.80405 14.9582 5.79938 14.9557 5.79356C14.9509 5.78192 14.944 5.76564 14.9351 5.74504C14.9172 5.70385 14.8912 5.64533 14.8566 5.57195C14.7874 5.42526 14.6841 5.21871 14.5444 4.97224C14.2656 4.48029 13.8391 3.82375 13.2466 3.16552C12.0611 1.84827 10.186 0.5 7.49998 0.5V1.5ZM14.5 6C14.0358 5.8143 14.0358 5.81413 14.0359 5.81397C14.0359 5.81394 14.036 5.8138 14.036 5.81375C14.036 5.81364 14.036 5.8136 14.036 5.81364C14.036 5.81372 14.0358 5.8141 14.0356 5.81476C14.035 5.8161 14.034 5.81861 14.0325 5.82225C14.0295 5.82952 14.0245 5.84132 14.0175 5.85735C14.0037 5.8894 13.9819 5.9383 13.952 6.00163C13.8923 6.12838 13.8003 6.31246 13.6744 6.53474C13.4219 6.98029 13.0359 7.57375 12.5033 8.16552C11.4389 9.34827 9.814 10.5 7.49998 10.5V11.5C10.186 11.5 12.0611 10.1517 13.2466 8.83448C13.8391 8.17625 14.2656 7.51971 14.5444 7.02776C14.6841 6.78129 14.7874 6.57474 14.8566 6.42805C14.8912 6.35467 14.9172 6.29615 14.9351 6.25496C14.944 6.23436 14.9509 6.21808 14.9557 6.20644C14.9582 6.20062 14.9601 6.19595 14.9615 6.19248C14.9622 6.19075 14.9628 6.18931 14.9632 6.18818C14.9635 6.18761 14.9637 6.18712 14.9638 6.18671C14.9639 6.1865 14.964 6.18625 14.9641 6.18615C14.9642 6.18591 14.9642 6.1857 14.5 6ZM7.5 7.5C6.67157 7.5 6 6.82843 6 6H5C5 7.38071 6.11929 8.5 7.5 8.5V7.5ZM9 6C9 6.82843 8.32843 7.5 7.5 7.5V8.5C8.88071 8.5 10 7.38071 10 6H9ZM7.5 4.5C8.32843 4.5 9 5.17157 9 6H10C10 4.61929 8.88071 3.5 7.5 3.5V4.5ZM7.5 3.5C6.11929 3.5 5 4.61929 5 6H6C6 5.17157 6.67157 4.5 7.5 4.5V3.5Z" fill="#6F7F89"/>
</svg>
