<svg width="28" height="28" viewBox="0 0 28 28" fill="none" xmlns="http://www.w3.org/2000/svg">
<g clip-path="url(#clip0_1473_1703)">
<path fill-rule="evenodd" clip-rule="evenodd" d="M12.1626 14.0561V20.9048C12.1626 20.9524 12.1815 20.998 12.2152 21.0316C12.2488 21.0653 12.2944 21.0842 12.342 21.0842H14.8827C14.9302 21.0842 14.9758 21.0653 15.0095 21.0316C15.0431 20.998 15.062 20.9524 15.062 20.9048V13.944H16.9078C16.9522 13.9433 16.9948 13.926 17.0272 13.8956C17.0597 13.8653 17.0797 13.8239 17.0834 13.7796L17.2627 11.6836C17.2648 11.6588 17.2617 11.6338 17.2536 11.6103C17.2455 11.5868 17.2326 11.5652 17.2158 11.547C17.1989 11.5287 17.1784 11.5141 17.1556 11.5042C17.1328 11.4943 17.1082 11.4892 17.0834 11.4893H15.062V9.99475C15.063 9.9115 15.0804 9.82927 15.1133 9.75279C15.1461 9.67631 15.1938 9.60708 15.2535 9.54909C15.3133 9.4911 15.3839 9.44549 15.4613 9.41489C15.5387 9.38429 15.6214 9.3693 15.7047 9.37078H17.1245C17.1482 9.37129 17.1717 9.367 17.1937 9.35817C17.2157 9.34933 17.2357 9.33614 17.2524 9.31939C17.2692 9.30263 17.2824 9.28266 17.2912 9.26067C17.3 9.23868 17.3043 9.21513 17.3038 9.19144V7.09536C17.3038 7.04779 17.2849 7.00218 17.2513 6.96854C17.2176 6.93491 17.172 6.91602 17.1245 6.91602H14.7145C14.0377 6.91602 13.3886 7.18488 12.9101 7.66345C12.4315 8.14203 12.1626 8.79112 12.1626 9.46792V11.4893H10.8885C10.8416 11.4903 10.797 11.5096 10.7641 11.5431C10.7313 11.5766 10.7129 11.6217 10.7129 11.6686V13.7647C10.7124 13.7881 10.7166 13.8113 10.7252 13.833C10.7338 13.8548 10.7467 13.8746 10.763 13.8913C10.7794 13.908 10.7989 13.9213 10.8205 13.9303C10.842 13.9394 10.8652 13.944 10.8885 13.944H12.1626V14.0561Z" fill="white"/>
<path d="M14 0C11.2311 0 8.52431 0.821086 6.22202 2.35943C3.91973 3.89777 2.12532 6.08427 1.06569 8.64243C0.00606596 11.2006 -0.271181 14.0155 0.269012 16.7313C0.809205 19.447 2.14258 21.9416 4.10051 23.8995C6.05845 25.8574 8.55301 27.1908 11.2687 27.731C13.9845 28.2712 16.7994 27.9939 19.3576 26.9343C21.9157 25.8747 24.1022 24.0803 25.6406 21.778C27.1789 19.4757 28 16.7689 28 14C27.996 10.2882 26.5198 6.72953 23.8951 4.10487C21.2705 1.48022 17.7118 0.00395611 14 0ZM26.2066 14C26.2073 16.4144 25.492 18.7748 24.1512 20.7826C22.8104 22.7905 20.9042 24.3556 18.6738 25.2801C16.4435 26.2045 13.989 26.4468 11.6209 25.9762C9.25283 25.5056 7.07748 24.3434 5.36998 22.6364C3.66249 20.9294 2.49956 18.7544 2.02826 16.3865C1.55696 14.0185 1.79848 11.564 2.72225 9.33335C3.64603 7.10267 5.21057 5.19605 7.21801 3.85461C9.22545 2.51317 11.5856 1.79717 14 1.79717C17.2355 1.80112 20.3375 3.08793 22.6257 5.37544C24.9139 7.66295 26.2016 10.7645 26.2066 14Z" fill="white"/>
</g>
<defs>
<clipPath id="clip0_1473_1703">
<rect width="28" height="28" fill="white"/>
</clipPath>
</defs>
</svg>
