<svg width="28" height="28" viewBox="0 0 28 28" fill="none" xmlns="http://www.w3.org/2000/svg">
<g clip-path="url(#clip0_1473_1712)">
<path d="M7.75985 10.4091H10.4388V19.0027H7.75985V10.4091ZM9.10119 6.13478C9.40786 6.13552 9.70743 6.22719 9.96201 6.39818C10.2166 6.56917 10.4147 6.81182 10.5314 7.09543C10.6481 7.37904 10.678 7.69088 10.6175 7.99152C10.5569 8.29216 10.4086 8.56808 10.1912 8.78441C9.97385 9.00074 9.69721 9.14775 9.39629 9.20686C9.09536 9.26596 8.78367 9.2345 8.50062 9.11646C8.21758 8.99842 7.97589 8.7991 7.80612 8.5437C7.63636 8.2883 7.54614 7.98829 7.54688 7.68162C7.54688 7.47786 7.58713 7.2761 7.66534 7.08794C7.74354 6.89978 7.85815 6.72893 8.00258 6.58519C8.14701 6.44146 8.31841 6.32767 8.50695 6.25038C8.69548 6.17308 8.89743 6.1338 9.10119 6.13478ZM12.1164 19.0102H14.7879V14.7545C14.7879 13.6336 15.0008 12.5463 16.3945 12.5463C17.7881 12.5463 17.7807 13.8316 17.7807 14.8292V19.0102H20.4559V14.2912C20.4559 11.9747 19.9552 10.1812 17.2464 10.1812C16.7384 10.162 16.2347 10.2812 15.7892 10.526C15.3437 10.7708 14.9731 11.1321 14.7169 11.5711H14.6795V10.4091H12.1164V19.0102Z" fill="white"/>
<path d="M14 0C11.2311 0 8.52431 0.821086 6.22202 2.35943C3.91973 3.89777 2.12532 6.08427 1.06569 8.64243C0.00606596 11.2006 -0.271181 14.0155 0.269012 16.7313C0.809205 19.447 2.14258 21.9416 4.10051 23.8995C6.05845 25.8574 8.55301 27.1908 11.2687 27.731C13.9845 28.2712 16.7994 27.9939 19.3576 26.9343C21.9157 25.8747 24.1022 24.0803 25.6406 21.778C27.1789 19.4757 28 16.7689 28 14C27.996 10.2882 26.5198 6.72953 23.8951 4.10487C21.2705 1.48022 17.7118 0.00395611 14 0ZM14 26.2028C11.5867 26.2021 9.22775 25.4858 7.22149 24.1445C5.21524 22.8032 3.65176 20.8971 2.72873 18.6672C1.8057 16.4374 1.56457 13.9839 2.03584 11.6171C2.50711 9.25019 3.66962 7.0762 5.37636 5.36998C7.0831 3.66375 9.25745 2.50192 11.6245 2.03137C13.9915 1.56083 16.4449 1.8027 18.6744 2.72641C20.904 3.65013 22.8096 5.2142 24.1503 7.22086C25.491 9.22752 26.2066 11.5867 26.2066 14C26.2026 17.2358 24.9152 20.3379 22.6268 22.6257C20.3383 24.9134 17.2358 26.1999 14 26.2028Z" fill="white"/>
</g>
<defs>
<clipPath id="clip0_1473_1712">
<rect width="28" height="28" fill="white"/>
</clipPath>
</defs>
</svg>
